<svg xmlns="http://www.w3.org/2000/svg" viewBox="0 0 406 401" width="406" height="401">
	<style>
		tspan { white-space:pre }
		.shp0 { fill: #253936;stroke: #000000;stroke-width: 3.14 } 
		.shp1 { fill: #be997a;stroke: #000000;stroke-linecap:round;stroke-linejoin:round;stroke-width: 3.674 } 
		.shp2 { fill: #cf4343;stroke: #000000;stroke-width: 3.666 } 
		.shp3 { fill: #cf4343;stroke: #000000;stroke-linecap:round;stroke-linejoin:round;stroke-width: 3.666 } 
		.shp4 { fill: #1a1a1a } 
		.shp5 { fill: #1a1a1a;stroke: #1a1a1a;stroke-linecap:round;stroke-linejoin:round;stroke-width: 3.678 } 
		.shp6 { fill: #e3dbdb;stroke: #000000;stroke-linecap:round;stroke-linejoin:round;stroke-width: 3.6 } 
		.shp7 { fill: #a5514d;stroke: #000000;stroke-width: 3.6 } 
	</style>
	<g id="Layer">
		<path id="Layer" class="shp0" d="M252.17 265.06L254.05 265.09C279.73 265.39 300.24 286.39 299.94 312.07L299.61 340.5C299.3 366.19 278.3 386.7 252.62 386.4L250.74 386.38C225.06 386.07 204.54 365.07 204.85 339.39L205.18 310.96C205.49 285.27 226.49 264.76 252.17 265.06Z" />
		<path id="Layer" class="shp0" d="M157.33 264.93L159.2 264.96C184.89 265.26 205.4 286.26 205.1 311.95L204.76 340.38C204.46 366.06 183.45 386.57 157.77 386.27L155.89 386.25C130.21 385.94 109.7 364.94 110 339.26L110.34 310.83C110.64 285.15 131.64 264.63 157.33 264.93Z" />
		<g id="Folder 1">
			<path id="Layer" fill-rule="evenodd" class="shp1" d="M47.14 138.9C37.18 137.3 26.19 143.48 22.6 152.7C19.01 161.92 24.19 170.69 34.16 172.29C44.12 173.89 55.11 167.71 58.7 158.49C62.29 149.27 57.11 140.5 47.14 138.9Z" />
			<path id="Layer" class="shp2" d="M108.42 274.63C138.95 253.92 86.4 178.96 65.69 148.44C55.38 132.48 -5.02 174.63 4.64 189.86C26.08 219.72 77.9 295.34 108.42 274.63Z" />
		</g>
		<g id="Folder 2">
			<path id="Layer" fill-rule="evenodd" class="shp1" d="M360.56 139.17C370.53 137.58 381.51 143.76 385.09 152.99C388.67 162.21 383.49 170.98 373.52 172.57C363.55 174.16 352.57 167.98 348.99 158.76C345.41 149.53 350.59 140.76 360.56 139.17Z" />
			<path id="Layer" class="shp2" d="M299.16 274.85C268.65 254.11 321.27 179.2 342.01 148.69C352.33 132.74 412.69 174.94 403.02 190.17C381.55 220.01 329.67 295.59 299.16 274.85Z" />
		</g>
		<path id="Layer" fill-rule="evenodd" class="shp3" d="M206.27 144.35L205.28 144.35L205.28 144.35L204.29 144.35L204.29 144.35C181.57 146.32 159.83 159.17 146 175.96C115.37 211.53 103.51 258.96 102.53 304.4C103.51 316.26 101.54 330.09 106.48 339.97C124.26 350.84 156.87 352.82 178.6 354.79C184.53 355.78 194.41 355.78 204.29 355.78L204.29 355.78L207.25 355.78L207.25 355.78C217.13 355.78 227.01 355.78 232.94 354.79C254.68 352.82 286.29 350.84 305.07 339.97C310.01 330.09 308.03 316.26 308.03 304.4C307.04 258.96 296.17 211.53 265.55 175.96C251.71 159.17 229.98 146.32 207.25 144.35L207.25 144.35L206.27 144.35L206.27 144.35Z" />
		<path id="Layer" class="shp4" d="M289.94 4.59C292.83 3.65 295.69 2.3 297.75 0C297.95 1.8 297.86 3.67 297.22 5.39C296.27 8.02 294.58 10.3 292.87 12.48C294.1 12.21 295.37 12.05 296.56 11.67C300.65 10.47 304.74 9.25 308.84 8.03C310.48 10.94 310.87 14.36 311.08 17.62C311.23 21.22 311.1 24.85 310.76 28.46C310.39 32.22 309.92 35.99 308.9 39.65C307.5 44.91 305 49.8 303.76 55.1C307.65 58.22 310.72 62.24 313.19 66.54C316.32 72.07 318.51 78.08 320.08 84.2C321.85 91.13 322.86 98.26 323.3 105.39C323.75 112.83 323.55 120.32 322.7 127.72C322 133.65 320.9 139.54 319.22 145.28C318.87 146.26 318.65 147.29 318.2 148.24C317.29 145.01 316.3 141.78 315.22 138.6C315.17 138.44 315.11 138.29 315.07 138.14C314.92 137.69 314.76 137.23 314.6 136.79C314.31 135.91 314.03 135.04 313.66 134.18C313.35 133.2 312.99 132.23 312.6 131.28C312.45 130.88 312.32 130.47 312.13 130.07C311.99 129.66 311.86 129.25 311.68 128.86C311.58 128.6 311.47 128.34 311.37 128.08C310.4 125.67 309.42 123.26 308.3 120.9C308.06 120.23 307.7 119.59 307.39 118.93C307.28 118.72 307.17 118.51 307.07 118.31C306.54 117.05 305.95 115.81 305.26 114.65C305.15 114.44 305.04 114.24 304.95 114.04C304.59 113.36 304.31 112.67 303.88 112.05C303.66 111.58 303.41 111.1 303.12 110.68C302.98 110.41 302.82 110.15 302.67 109.91C302.48 109.55 302.29 109.17 302.06 108.85C301.88 108.51 301.69 108.21 301.5 107.9C301.33 107.63 301.18 107.37 301.02 107.09C300.98 107.04 300.87 106.93 300.82 106.88C300.59 106.36 300.24 105.9 299.93 105.43C299.43 104.65 298.89 103.9 298.42 103.12C298.37 103.07 298.27 102.96 298.22 102.91C297.96 102.46 297.63 102.03 297.34 101.6C296.77 100.78 296.13 99.98 295.5 99.18C295.16 98.69 294.77 98.28 294.44 97.79C294.17 97.5 293.86 97.22 293.67 96.85C293.16 96.38 292.81 95.76 292.28 95.3C291.84 94.88 291.53 94.32 291.07 93.9C289.45 92.37 287.97 90.67 286.25 89.27C284.69 87.86 283.05 86.55 281.32 85.37C281.27 85.33 281.16 85.24 281.11 85.2C280.47 84.82 279.86 84.4 279.25 83.98C278.68 83.63 278.11 83.25 277.51 82.94C277.29 82.78 277.03 82.63 276.77 82.48C276.56 82.39 276.34 82.29 276.12 82.19C276.07 82.14 275.97 82.03 275.91 81.99C274.86 81.5 273.87 80.9 272.8 80.5C272.36 80.27 271.89 80.06 271.43 79.89C271.17 79.78 270.91 79.68 270.67 79.57C264.16 76.98 257.08 75.83 250.08 75.97C240.22 76.21 230.52 78.72 221.39 82.34C219.8 82.92 218.25 83.61 216.69 84.26L216.68 84.33C216.22 84.46 215.76 84.68 215.33 84.87L215.3 84.93C214.47 85.21 213.71 85.64 212.95 86.05C212.88 86.03 212.76 86.03 212.7 86.02L212.7 86.24C212.63 86.2 212.47 86.16 212.4 86.14L212.41 86.31C211.23 86.72 210.16 87.39 209.04 87.92L209.04 88.08C208.97 88.06 208.81 88 208.73 87.98L208.73 88.22C208.65 88.2 208.5 88.16 208.43 88.14L208.42 88.37C208.35 88.36 208.21 88.33 208.13 88.31L208.11 88.45C207.34 88.79 206.6 89.22 205.84 89.61L205.81 89.68C205.53 89.78 205.26 89.9 204.98 89.98C205.3 88.63 205.8 87.33 206.09 85.98C206.58 83.98 207.1 81.93 207.01 79.85C206.95 78.68 206.42 77.44 205.35 76.84C204.52 76.5 203.6 76.35 202.73 76.52C200.58 76.75 198.51 77.43 196.47 78.06C189.85 80.16 183.17 82.44 176.2 83C175.38 83.01 174.58 83.18 173.75 83.15C172.75 83.12 171.74 83.32 170.71 83.3C169.58 83.35 168.47 83.29 167.33 83.44C165.56 83.5 163.77 83.42 162 83.59C158.67 83.67 155.35 83.55 152.05 83.75C148.83 83.74 145.63 83.77 142.43 83.82C140.43 84.01 138.42 83.86 136.45 83.98C135.07 84.16 133.7 84 132.35 84.17C126.03 84.48 119.65 85.12 113.62 87.12C111.76 87.81 109.89 88.59 108.18 89.61C107.61 89.95 107.07 90.33 106.49 90.69C105.89 91.11 105.31 91.57 104.73 92.03C101.44 94.73 98.99 98.32 97.16 102.13C94.98 106.71 93.59 111.63 92.5 116.59C90.39 126.67 89.49 136.96 88.83 147.22C88.71 147.1 88.63 146.99 88.56 146.83C86.94 142.3 85.33 137.77 83.68 133.24C83.61 133.09 83.56 132.94 83.49 132.8C83.31 132.22 83.14 131.65 82.88 131.12C82.25 129.23 81.53 127.39 80.85 125.53C78.25 117.8 76.67 109.71 76.31 101.56C76.17 99.22 76.25 96.86 76.27 94.52C76.41 93.52 76.36 92.49 76.48 91.46C76.95 85.11 78.28 78.78 80.44 72.78C80.61 72.36 80.76 71.97 80.9 71.56C81 71.3 81.11 71.05 81.21 70.79C81.32 70.54 81.43 70.29 81.52 70.03C81.68 69.67 81.83 69.32 81.97 68.95C82.25 68.35 82.54 67.77 82.81 67.16C85.46 61.7 88.89 56.62 93.09 52.25C96.91 48.26 101.3 44.87 106.08 42.12C107.49 41.29 108.96 40.57 110.47 39.92C112.55 39.02 114.79 38.22 116.38 36.54C117.33 35.61 117.99 34.43 118.64 33.28C121.84 28.79 125.9 24.95 130.39 21.8C135.32 18.36 140.78 15.73 146.42 13.7C152.7 11.42 159.23 9.88 165.8 8.76C178.29 6.64 190.96 6.05 203.59 5.96C221.19 5.86 238.75 6.93 256.34 7.28C263.79 7.37 271.28 7.43 278.69 6.7C282.49 6.32 286.29 5.74 289.94 4.59L289.94 4.59Z" />
		<path id="Layer" class="shp5" d="M174.71 37.64L229.93 37.64C280.78 37.64 321.87 78.73 321.87 129.57L321.87 129.57C321.87 180.42 280.78 221.51 229.93 221.51L174.71 221.51C123.86 221.51 82.77 180.42 82.77 129.57L82.77 129.57C82.77 78.73 123.86 37.64 174.71 37.64Z" />
		<g id="Layer">
			<path id="Layer" class="shp6" d="M159.95 358.97C182.11 358.97 200.24 373.62 202.45 392.53C200.27 396.04 182.14 398.75 159.95 398.75L159.39 398.75C137.2 398.75 119.07 396.04 116.89 392.53C119.1 373.62 137.23 358.97 159.39 358.97L159.95 358.97Z" />
			<path id="Layer" class="shp7" d="M159.35 359.47C177.4 359.47 192.76 369.18 199.04 383C190.69 385.06 176.79 386.53 160.91 386.72L159.04 386.75C141.87 386.95 126.95 385.61 118.88 383.47C125.02 369.4 140.54 359.47 158.79 359.47L159.35 359.47Z" />
		</g>
		<g id="Layer">
			<path id="Layer" class="shp6" d="M257.35 358.97C235.19 358.97 217.06 373.62 214.85 392.53C217.03 396.04 235.16 398.75 257.35 398.75L257.91 398.75C280.1 398.75 298.23 396.04 300.41 392.53C298.2 373.62 280.07 358.97 257.91 358.97L257.35 358.97Z" />
			<path id="Layer" class="shp7" d="M257.95 359.47C239.9 359.47 224.54 369.18 218.26 383C226.61 385.06 240.51 386.53 256.39 386.72L258.26 386.75C275.43 386.95 290.35 385.61 298.42 383.47C292.28 369.4 276.76 359.47 258.51 359.47L257.95 359.47Z" />
		</g>
		<g id="Layer">
		</g>
	</g>
</svg>