<?xml version="1.0" encoding="UTF-8"?>
<svg version="1.1" viewBox="0 0 274.54 400.56" xmlns="http://www.w3.org/2000/svg">
<g transform="translate(-234.15 -274.93)">
<path transform="matrix(-.11747 .059576 .096725 .11935 77.004 616.88)" d="m-1064 429.4c0 65.722-60.89 119-136 119s-136-53.278-136-119 60.89-119 136-119 136 53.278 136 119z" fill="#be997a" fill-rule="evenodd" stroke="#000" stroke-linecap="round" stroke-linejoin="round" stroke-width="26.064"/>
<path d="m288.44 462.75c-36.56-4.94-47.43 85.96-52.37 122.51-2.96 18.77 70.15 27.67 73.11 9.88 3.96-36.55 15.81-127.45-20.74-132.39z" fill="#cf4343" stroke="#000" stroke-width="3.6664px"/>
<rect transform="matrix(.99993 .0118 -.0118 .99993 0 0)" x="378.22" y="535.02" width="94.766" height="121.32" rx="46.444" ry="7.5372" fill="#253936" stroke="#000" stroke-width="3.1402"/>
<rect transform="matrix(.99993 .0118 -.0118 .99993 0 0)" x="283.38" y="536.01" width="94.766" height="121.32" rx="46.444" ry="7.5372" fill="#253936" stroke="#000" stroke-width="3.1402"/>
<path transform="matrix(.11747 .059576 -.096725 .11935 665.85 616.88)" d="m-1064 429.4c0 65.722-60.89 119-136 119s-136-53.278-136-119 60.89-119 136-119 136 53.278 136 119z" fill="#be997a" fill-rule="evenodd" stroke="#000" stroke-linecap="round" stroke-linejoin="round" stroke-width="26.064"/>
<path d="m454.42 462.75c36.56-4.94 47.42 85.96 52.36 122.51 2.97 18.77-70.14 27.67-73.11 9.88-3.95-36.55-15.81-127.45 20.75-132.39z" fill="#cf4343" stroke="#000" stroke-width="3.666"/>
<path d="m372.42 419.28h-0.99v0h-0.99v0c-22.72 1.97-44.461 14.82-58.291 31.61-30.63 35.57-42.49 83-43.47 128.44 0.98 11.86-0.99 25.69 3.95 35.57 17.78 10.87 50.39 12.85 72.121 14.82 5.93 0.99 15.81 0.99 25.69 0.99v0h2.96v0c9.88 0 19.76 0 25.69-0.99 21.74-1.97 53.35-3.95 72.13-14.82 4.94-9.88 2.96-23.71 2.96-35.57-0.99-45.44-11.86-92.87-42.48-128.44-13.84-16.79-35.57-29.64-58.3-31.61v0h-0.98z" fill="#cf4343" fill-rule="evenodd" stroke="#000" stroke-linecap="round" stroke-linejoin="round" stroke-width="3.666"/>
<rect x="248.92" y="312.57" width="239.1" height="183.87" rx="119.55" ry="91.953" fill="#c7ab8a" fill-rule="evenodd" stroke="#000" stroke-linecap="round" stroke-linejoin="round" stroke-width="3.678"/>
<path transform="matrix(2.9423 0 0 2.9423 163.92 -37.176)" d="m55 152.5c0 1.381-1.1193 2.5-2.5 2.5s-2.5-1.119-2.5-2.5 1.1193-2.5 2.5-2.5 2.5 1.119 2.5 2.5z" fill-rule="evenodd"/>
<path transform="matrix(2.9423 0 0 2.9423 262.72 -37.176)" d="m55 152.5c0 1.381-1.1193 2.5-2.5 2.5s-2.5-1.119-2.5-2.5 1.1193-2.5 2.5-2.5 2.5 1.119 2.5 2.5z" fill-rule="evenodd"/>
<path d="m357.6 440.03h22.72" fill="none" stroke="#000" stroke-linecap="round" stroke-linejoin="round" stroke-width="5.5169"/>
<path d="m456.09 279.52c2.89-0.94 5.75-2.29 7.81-4.59 0.2 1.8 0.11 3.67-0.53 5.39-0.95 2.63-2.64 4.91-4.35 7.09 1.23-0.27 2.5-0.43 3.69-0.81 4.09-1.2 8.18-2.42 12.28-3.64 1.64 2.91 2.03 6.33 2.24 9.59 0.15 3.6 0.02 7.23-0.32 10.84-0.37 3.76-0.84 7.53-1.86 11.19-1.4 5.26-3.9 10.15-5.14 15.45 3.89 3.12 6.96 7.14 9.43 11.44 3.13 5.53 5.32 11.54 6.89 17.66 1.77 6.93 2.78 14.06 3.22 21.19 0.45 7.44 0.25 14.93-0.6 22.33-0.7 5.93-1.8 11.82-3.48 17.56-0.35 0.98-0.57 2.01-1.02 2.96-0.91-3.23-1.9-6.46-2.98-9.64-0.05-0.16-0.11-0.31-0.15-0.46-0.15-0.45-0.31-0.91-0.47-1.35-0.29-0.88-0.57-1.75-0.94-2.61-0.31-0.98-0.67-1.95-1.06-2.9-0.15-0.4-0.28-0.81-0.47-1.21-0.14-0.41-0.27-0.82-0.45-1.21-0.1-0.26-0.21-0.52-0.31-0.78-0.97-2.41-1.95-4.82-3.07-7.18-0.24-0.67-0.6-1.31-0.91-1.97-0.11-0.21-0.22-0.42-0.32-0.62-0.53-1.26-1.12-2.5-1.81-3.66-0.11-0.21-0.22-0.41-0.31-0.61-0.36-0.68-0.64-1.37-1.07-1.99-0.22-0.47-0.47-0.95-0.76-1.37-0.14-0.27-0.3-0.53-0.45-0.77-0.19-0.36-0.38-0.74-0.61-1.06-0.18-0.34-0.37-0.64-0.56-0.95-0.17-0.27-0.32-0.53-0.48-0.81-0.04-0.05-0.15-0.16-0.2-0.21-0.23-0.52-0.58-0.98-0.89-1.45-0.5-0.78-1.04-1.53-1.51-2.31-0.05-0.05-0.15-0.16-0.2-0.21-0.26-0.45-0.59-0.88-0.88-1.31-0.57-0.82-1.21-1.62-1.84-2.42-0.34-0.49-0.73-0.9-1.06-1.39-0.27-0.29-0.58-0.57-0.77-0.94-0.51-0.47-0.86-1.09-1.39-1.55-0.44-0.42-0.75-0.98-1.21-1.4-1.62-1.53-3.1-3.23-4.82-4.63-1.56-1.41-3.2-2.72-4.93-3.9-0.05-0.04-0.16-0.13-0.21-0.17-0.64-0.38-1.25-0.8-1.86-1.22-0.57-0.35-1.14-0.73-1.74-1.04-0.22-0.16-0.48-0.31-0.74-0.46-0.21-0.09-0.43-0.19-0.65-0.29-0.05-0.05-0.15-0.16-0.21-0.2-1.05-0.49-2.04-1.09-3.11-1.49-0.44-0.23-0.91-0.44-1.37-0.61-0.26-0.11-0.52-0.21-0.76-0.32-6.51-2.59-13.59-3.74-20.59-3.6-9.86 0.24-19.56 2.75-28.69 6.37-1.59 0.58-3.14 1.27-4.7 1.92l-0.01 0.07c-0.46 0.13-0.92 0.35-1.35 0.54l-0.03 0.06c-0.83 0.28-1.59 0.71-2.35 1.12-0.07-0.02-0.19-0.02-0.25-0.03v0.22c-0.07-0.04-0.23-0.08-0.3-0.1l0.01 0.17c-1.18 0.41-2.25 1.08-3.37 1.61v0.16c-0.07-0.02-0.23-0.08-0.31-0.1v0.24c-0.08-0.02-0.23-0.06-0.3-0.08l-0.01 0.23c-0.07-0.01-0.21-0.04-0.29-0.06l-0.02 0.14c-0.77 0.34-1.51 0.77-2.27 1.16l-0.03 0.07c-0.28 0.1-0.55 0.22-0.83 0.3 0.32-1.35 0.82-2.65 1.11-4 0.49-2 1.01-4.05 0.92-6.13-0.06-1.17-0.59-2.41-1.66-3.01-0.83-0.34-1.75-0.49-2.62-0.32-2.15 0.23-4.22 0.91-6.26 1.54-6.62 2.1-13.3 4.38-20.27 4.94-0.82 0.01-1.62 0.18-2.45 0.15-1-0.03-2.01 0.17-3.04 0.15-1.13 0.05-2.24-0.01-3.381 0.14-1.77 0.06-3.56-0.02-5.33 0.15-3.33 0.08-6.65-0.04-9.95 0.16-3.22-0.01-6.42 0.02-9.62 0.07-2 0.19-4.01 0.04-5.98 0.16-1.38 0.18-2.75 0.02-4.1 0.19-6.32 0.31-12.7 0.95-18.73 2.95-1.86 0.69-3.73 1.47-5.44 2.49-0.57 0.34-1.11 0.72-1.69 1.08-0.6 0.42-1.18 0.88-1.76 1.34-3.29 2.7-5.74 6.29-7.57 10.1-2.18 4.58-3.57 9.5-4.66 14.46-2.11 10.08-3.01 20.37-3.67 30.63-0.12-0.12-0.2-0.23-0.27-0.39-1.62-4.53-3.23-9.06-4.88-13.59-0.07-0.15-0.12-0.3-0.19-0.44-0.18-0.58-0.35-1.15-0.61-1.68-0.63-1.89-1.35-3.73-2.03-5.59-2.6-7.73-4.18-15.82-4.54-23.97-0.14-2.34-0.06-4.7-0.04-7.04 0.14-1 0.09-2.03 0.21-3.06 0.47-6.35 1.8-12.68 3.96-18.68 0.17-0.42 0.32-0.81 0.46-1.22 0.1-0.26 0.21-0.51 0.31-0.77 0.11-0.25 0.22-0.5 0.31-0.76 0.16-0.36 0.31-0.71 0.45-1.08 0.28-0.6 0.57-1.18 0.84-1.79 2.65-5.46 6.08-10.54 10.28-14.91 3.82-3.99 8.21-7.38 12.99-10.13 1.41-0.83 2.88-1.55 4.39-2.2 2.08-0.9 4.32-1.7 5.91-3.38 0.95-0.93 1.61-2.11 2.26-3.26 3.2-4.49 7.26-8.33 11.75-11.48 4.93-3.44 10.39-6.07 16.03-8.1 6.28-2.28 12.81-3.82 19.38-4.94 12.491-2.12 25.161-2.71 37.791-2.8 17.6-0.1 35.16 0.97 52.75 1.32 7.45 0.09 14.94 0.15 22.35-0.58 3.8-0.38 7.6-0.96 11.25-2.11z" fill="#1a1a1a"/>
<g transform="translate(-4082.6 2566.4)" stroke="#000" stroke-width="3.6">
<path d="m4408.7-1932.5c22.16 0 40.29 14.65 42.5 33.56-2.18 3.51-20.31 6.22-42.5 6.22h-0.56c-22.19 0-40.32-2.71-42.5-6.22 2.21-18.91 20.34-33.56 42.5-33.56h0.56z" fill="#e3dbdb" stroke-linecap="round" stroke-linejoin="round"/>
<path d="m4408.1-1932c18.05 0 33.41 9.71 39.69 23.53-8.35 2.06-22.25 3.53-38.13 3.72l-1.87 0.03c-17.17 0.2-32.09-1.14-40.16-3.28 6.14-14.07 21.66-24 39.91-24h0.56z" fill="#a5514d"/>
<path d="m4408.4-1932.6c3.96 0 7.78 0.48 11.42 1.35-6.09 10.3-11.2 18.64-11.7 18.64-0.52 0-5.63-8.34-11.71-18.64 3.62-0.87 7.47-1.35 11.42-1.35h0.57z" fill-opacity=".2" stroke-linecap="round" stroke-linejoin="round"/>
</g>
<g transform="translate(-4082.6 2566.4)" stroke="#000" stroke-width="3.6">
<path d="m4506.1-1932.5c-22.16 0-40.29 14.65-42.5 33.56 2.18 3.51 20.31 6.22 42.5 6.22h0.56c22.19 0 40.32-2.71 42.5-6.22-2.21-18.91-20.34-33.56-42.5-33.56h-0.56z" fill="#e3dbdb" stroke-linecap="round" stroke-linejoin="round"/>
<path d="m4506.7-1932c-18.05 0-33.41 9.71-39.69 23.53 8.35 2.06 22.25 3.53 38.13 3.72l1.87 0.03c17.17 0.2 32.09-1.14 40.16-3.28-6.14-14.07-21.66-24-39.91-24h-0.56z" fill="#a5514d"/>
<path d="m4506.5-1932.6c-3.96 0-7.78 0.48-11.42 1.35 6.09 10.3 11.2 18.64 11.7 18.64 0.52 0 5.63-8.34 11.71-18.64-3.62-0.87-7.47-1.35-11.42-1.35h-0.57z" fill-opacity=".2" stroke-linecap="round" stroke-linejoin="round"/>
</g>
<g transform="translate(-4402.6 2566.4)">
<path d="m4692.8-2185.7c7.15-0.33 14.3-0.51 21.47-0.54 3.63-0.07 7.24 0.02 10.88 0.05 6.38 0.13 12.81 0.34 19.16 1.02 2.88 0.29 5.71 0.85 8.42 1.78 2.88 0.98 5.57 2.33 8.42 3.37 5.06 1.91 10.73 2.12 15.92 0.63 2.84-0.84 5.47-2.13 8.2-3.21 2.47-1 5.09-1.75 7.73-2.19 2.94-0.46 5.88-0.7 8.87-0.9 6.96-0.44 13.94-0.54 20.91-0.58 13.85 0.05 27.7 0.44 41.48 1.72 4.32 0.43 8.65 0.93 12.89 1.88-0.17 5.79-0.32 11.6-0.95 17.37-0.17 1.45-0.38 2.91-0.82 4.3-0.24 0.71-0.6 1.45-1.29 1.8-0.69 0.32-1.47 0.27-2.19 0.51-1.13 0.37-2.01 1.26-2.68 2.18-1.12 1.59-1.91 3.36-2.64 5.12-0.82 2.07-1.42 4.2-2.07 6.31-0.61 2.02-1.33 4.06-2.57 5.79-0.91 1.24-1.95 2.42-3.3 3.18-0.56 0.34-1.19 0.6-1.77 0.89-3.99 1.57-8.22 2.3-12.44 2.9-5.92 0.83-11.95 1.21-17.94 1.32-1.74 0.07-3.44 0.07-5.17 0.01-6.41-0.12-12.86-0.55-19.19-1.71-2.86-0.54-5.7-1.23-8.39-2.35-1.76-0.77-3.54-1.73-4.71-3.27-1.64-2.26-2.86-4.76-3.78-7.35-0.91-2.47-1.57-5.01-2.51-7.47-0.74-1.88-1.72-3.71-3.08-5.24-0.82-0.78-1.56-1.67-2.51-2.3-0.18-0.15-0.35-0.28-0.53-0.4-0.37-0.31-0.77-0.54-1.19-0.79-0.29-0.22-0.63-0.41-0.94-0.55-0.92-0.59-1.96-1.03-2.94-1.49-0.84-0.01-1.71 0-2.54 0-0.47-0.03-0.9 0.23-1.33 0.39-0.67 0.35-1.4 0.66-2.06 1.1-0.32 0.14-0.62 0.32-0.91 0.5-0.94 0.55-1.8 1.21-2.61 1.89-0.87 0.88-1.81 1.69-2.48 2.7-1.3 1.76-2.16 3.8-2.83 5.83-0.89 2.58-1.61 5.2-2.65 7.72-0.82 1.95-1.86 3.82-3.11 5.52-1.38 1.72-3.4 2.72-5.4 3.51-2.89 1.14-5.96 1.8-9.03 2.3-6.58 1.1-13.27 1.44-19.93 1.49-6.77-0.03-13.55-0.36-20.26-1.26-3.24-0.44-6.44-1.01-9.6-1.86-2.15-0.61-4.36-1.3-6.22-2.6-1.99-1.59-3.4-3.83-4.28-6.21-0.97-2.61-1.57-5.3-2.57-7.92-0.84-2.13-1.75-4.29-3.22-6.1-0.54-0.78-1.32-1.33-2.17-1.68-0.82-0.25-1.7-0.29-2.51-0.55-0.35-0.33-0.65-0.68-0.91-1.1-0.2-0.51-0.41-1.03-0.53-1.58-0.49-2.3-0.73-4.62-0.86-6.94-0.17-0.77-0.06-1.58-0.18-2.35-0.08-0.79-0.01-1.59-0.15-2.39-0.06-0.97-0.03-1.97-0.06-2.94-0.12-1.19-0.06-2.39-0.13-3.6-0.03-0.86-0.07-1.75-0.06-2.63 3.22-0.73 6.52-1.17 9.8-1.54 6.66-0.74 13.35-1.17 20.04-1.49m4.24 4.21c-3.22 0.22-6.44 0.6-9.53 1.6-1.57 0.52-3.09 1.25-4.46 2.18l0.01 0.09c-0.36 0.2-0.68 0.43-0.97 0.74-0.45 0.45-0.97 0.88-1.34 1.43-0.29 0.32-0.55 0.64-0.78 1-1.58 2.36-2.29 5.16-2.55 7.92-0.33 3.43-0.09 6.89 0.39 10.28 0.63 4.46 1.9 8.96 4.57 12.64 1.47 2.05 3.38 3.75 5.59 5.01 4.11 2.39 8.9 3.28 13.59 3.73 3.52 0.35 7.06 0.42 10.59 0.43 3.79-0.01 7.55-0.01 11.32-0.16 3.16-0.04 6.34-0.21 9.49-0.57 2.72-0.34 5.43-0.81 7.96-1.8 1.9-0.73 3.71-1.75 5.18-3.15 2.08-1.89 3.53-4.36 4.55-6.92 0.94-2.35 1.62-4.73 2.15-7.19 0.09-0.39 0.18-0.78 0.26-1.19 0.57-2.79 1.1-5.59 1.24-8.44-0.03-2.77-0.48-5.61-1.86-8.07-0.09-0.1-0.17-0.23-0.25-0.34-0.4-0.73-0.9-1.4-1.49-1.98-0.25-0.39-0.57-0.76-1.01-1l0.05-0.03c-0.29-0.22-0.55-0.45-0.84-0.61l0.05-0.09c-0.18-0.09-0.38-0.22-0.57-0.3l0.01-0.07c-0.84-0.56-1.68-1.1-2.6-1.55-0.4-0.18-0.78-0.36-1.21-0.53-0.22-0.09-0.42-0.18-0.64-0.25-3.73-1.43-7.71-2.05-11.63-2.45-3.27-0.29-6.55-0.46-9.82-0.46-1.41-0.07-2.82-0.03-4.24-0.05-3.98-0.01-7.94-0.04-11.93-0.05-3.1 0-6.19-0.01-9.28 0.2m107.34 0.8c-2.79 0.4-5.57 0.97-8.2 2.02-0.22 0.07-0.45 0.15-0.64 0.25-0.52 0.2-1 0.44-1.47 0.68-1.1 0.51-2.1 1.21-3.06 1.93-0.15 0.13-0.29 0.29-0.44 0.41-0.38 0.29-0.74 0.61-1.1 0.96-0.01 0.07-0.04 0.17-0.06 0.22-0.34 0.23-0.57 0.53-0.8 0.87l-0.04 0.01c-0.88 1.18-1.57 2.49-2.01 3.88-0.93 2.89-0.93 5.99-0.49 8.96 0.39 2.53 0.86 5.05 1.48 7.54 0.64 2.57 1.41 5.1 2.57 7.5 1.03 2.13 2.39 4.14 4.19 5.68 1.43 1.24 3.12 2.17 4.88 2.83 2.6 0.99 5.34 1.47 8.1 1.79 3.08 0.35 6.16 0.51 9.26 0.56 3.85 0.15 7.69 0.15 11.54 0.16 3.3 0 6.62-0.08 9.91-0.37 4.35-0.4 8.75-1.12 12.73-3.05 3.54-1.69 6.53-4.51 8.34-7.99 0.27-0.46 0.52-0.89 0.67-1.4h0.05c1.72-3.9 2.46-8.13 2.82-12.34 0.16-0.98 0.06-1.97 0.17-2.93 0.07-0.69 0.07-1.4-0.04-2.1-0.06-2.64-0.48-5.36-1.57-7.78-0.18-0.53-0.46-1.01-0.74-1.47-0.66-1.18-1.55-2.21-2.55-3.12-0.13-0.08-0.26-0.16-0.36-0.27-0.56-0.48-1.15-0.86-1.75-1.26-0.03 0-0.09 0-0.12-0.01-0.44-0.3-0.93-0.53-1.44-0.74-2.37-1.03-4.91-1.55-7.46-1.87-3.46-0.45-6.96-0.55-10.45-0.55-3.88-0.01-7.77 0.03-11.65 0.04-6.77 0.04-13.56-0.02-20.27 0.96z"/>
<path d="m4672-2181.5-23.25 1.66v7.91l24.44 3.21"/>
<path d="m4869.3-2181.5 23.24 1.66v7.91l-24.43 3.21"/>
</g>
<g transform="matrix(.91504 0 0 .91504 -3701.4 2397.5)">
<path d="m4414.8-2050.5c-8.1 4.85-10.85 15.09-6.11 22.97l12.34 23.03c7.93-7.31 21.31-15.1 31.67-18.39l-14.66-22.25c-5.09-8.49-15.59-9.78-23.24-5.36z" fill="#beb393" fill-rule="evenodd"/>
<path d="m4416.4-2047.2c-5.98 3.6-7.99 11.13-4.51 16.93l7.76 12.81c6.31-4.88 14.42-9.57 21.79-12.65l-7.95-13.15c-2.07-3.47-5.61-5.47-9.39-5.77-2.57-0.21-5.26 0.38-7.7 1.83z" fill="#a39b82" fill-rule="evenodd"/>
<path d="m4491.2-2050.4c-8.25-4.6-18.48-1.9-22.97 6.12l-13.82 22.18c10.27 3.24 23.71 10.96 31.71 18.33l11.99-23.82c4.84-8.61 0.74-18.38-6.91-22.81z" fill="#beb393" fill-rule="evenodd"/>
<path d="m4489.1-2047c-6.11-3.39-13.63-1.39-16.94 4.52l-7.25 13.1c7.37 3.06 15.48 7.76 21.83 12.63l7.46-13.47c1.97-3.52 1.95-7.58 0.33-11.01-1.11-2.34-2.96-4.36-5.43-5.77z" fill="#a39b82" fill-rule="evenodd"/>
<path d="m4491.4-1971.5c-14.35 13.46-60.67 13.35-74.97-0.19-14.2-13.54-9.26-48.14 5.07-61.59 14.35-13.47 51-13.37 65.28 0.18 14.26 13.54 18.99 48.13 4.62 61.6z" fill="#beb393" fill-rule="evenodd"/>
<path d="m4454.8-1999.8c-19.17 0-35.51 7.28-41.63 24.22 0.95 1.46 2.02 2.78 3.25 3.94 14.3 13.54 60.64 13.65 74.96 0.19 1.76-1.65 3.2-3.58 4.41-5.77-6.58-16.07-22.42-22.58-40.99-22.58z" fill="#dbc9ad"/>
<g transform="matrix(.17587 0 0 .17587 4391.9 -2078.4)">
<path d="m415.2 456.7c-13.4-22.7-100.4-22.1-113.3 0.9-13 23 30.9 73.5 57.3 73.2 26.4-0.2 69.4-51.3 56-74.1z" fill="#373328" fill-rule="evenodd"/>
<path transform="matrix(.2171 0 0 .2111 422.2 580.3)" d="m-291.4-221.9c0 100.9-77.104 187.73-184.13 207.36" fill="none" stroke="#373328" stroke-linecap="round" stroke-linejoin="round" stroke-width="33.854"/>
<path transform="matrix(-.2171 0 0 .2111 295.6 580.3)" d="m-291.4-221.9c0 100.9-77.104 187.73-184.13 207.36" fill="none" stroke="#373328" stroke-linecap="round" stroke-linejoin="round" stroke-width="33.854"/>
</g>
<path transform="matrix(.04409 0 0 .046324 4446.4 -1974.5)" d="m-288.6-577.6c0 108.08-92.095 195.7-205.7 195.7s-205.7-87.618-205.7-195.7 92.095-195.7 205.7-195.7 205.7 87.618 205.7 195.7z" fill="#efede3" fill-rule="evenodd"/>
<path transform="matrix(.037425 0 0 .039324 4443.4 -1978.2)" d="m-288.6-577.6c0 108.08-92.095 195.7-205.7 195.7s-205.7-87.618-205.7-195.7 92.095-195.7 205.7-195.7 205.7 87.618 205.7 195.7z" fill="#373328" fill-rule="evenodd"/>
<path transform="matrix(.005047 0 0 .005294 4430.5 -2001.4)" d="m-288.6-577.6c0 108.08-92.095 195.7-205.7 195.7s-205.7-87.618-205.7-195.7 92.095-195.7 205.7-195.7 205.7 87.618 205.7 195.7z" fill="#fff" fill-rule="evenodd"/>
<path transform="matrix(.04409 0 0 .046324 4506.9 -1974.8)" d="m-288.6-577.6c0 108.08-92.095 195.7-205.7 195.7s-205.7-87.618-205.7-195.7 92.095-195.7 205.7-195.7 205.7 87.618 205.7 195.7z" fill="#efede3" fill-rule="evenodd"/>
<path transform="matrix(.037425 0 0 .039324 4503.2 -1978.2)" d="m-288.6-577.6c0 108.08-92.095 195.7-205.7 195.7s-205.7-87.618-205.7-195.7 92.095-195.7 205.7-195.7 205.7 87.618 205.7 195.7z" fill="#373328" fill-rule="evenodd"/>
<path transform="matrix(.005047 0 0 .005294 4490.3 -2001.4)" d="m-288.6-577.6c0 108.08-92.095 195.7-205.7 195.7s-205.7-87.618-205.7-195.7 92.095-195.7 205.7-195.7 205.7 87.618 205.7 195.7z" fill="#fff" fill-rule="evenodd"/>
</g>
</g>
</svg>
